<?xml version="1.0" encoding="UTF-8" standalone="no"?>
<!-- Created with Inkscape (http://www.inkscape.org/) -->

<svg
   xmlns:dc="http://purl.org/dc/elements/1.1/"
   xmlns:cc="http://creativecommons.org/ns#"
   xmlns:rdf="http://www.w3.org/1999/02/22-rdf-syntax-ns#"
   xmlns:svg="http://www.w3.org/2000/svg"
   xmlns="http://www.w3.org/2000/svg"
   xmlns:sodipodi="http://sodipodi.sourceforge.net/DTD/sodipodi-0.dtd"
   xmlns:inkscape="http://www.inkscape.org/namespaces/inkscape"
   width="132.29167mm"
   height="39.651394mm"
   viewBox="0 0 132.29167 39.651394"
   version="1.1"
   id="svg4766"
   inkscape:version="0.92.3 (2405546, 2018-03-11)"
   sodipodi:docname="dups-banner.svg">
  <defs
     id="defs4760" />
  <sodipodi:namedview
     id="base"
     pagecolor="#ffffff"
     bordercolor="#666666"
     borderopacity="1.0"
     inkscape:pageopacity="0.0"
     inkscape:pageshadow="2"
     inkscape:zoom="1.979899"
     inkscape:cx="313.19575"
     inkscape:cy="-52.722256"
     inkscape:document-units="mm"
     inkscape:current-layer="layer1"
     showgrid="false"
     fit-margin-top="0"
     fit-margin-left="0"
     fit-margin-right="0"
     fit-margin-bottom="0"
     inkscape:window-width="1920"
     inkscape:window-height="1137"
     inkscape:window-x="-8"
     inkscape:window-y="-8"
     inkscape:window-maximized="1" />
  <metadata
     id="metadata4763">
    <rdf:RDF>
      <cc:Work
         rdf:about="">
        <dc:format>image/svg+xml</dc:format>
        <dc:type
           rdf:resource="http://purl.org/dc/dcmitype/StillImage" />
        <dc:title></dc:title>
      </cc:Work>
    </rdf:RDF>
  </metadata>
  <g
     inkscape:label="Layer 1"
     inkscape:groupmode="layer"
     id="layer1"
     transform="translate(0,20.079634)">
    <g
       id="g4820"
       transform="matrix(2.0259493,0,0,2.0259493,0,-20.079634)">
      <g
         transform="matrix(0.010483,0,0,0.010483,49.888597,-28.19927)"
         id="g34"
         style="clip-rule:evenodd;fill-rule:evenodd;image-rendering:optimizeQuality;shape-rendering:geometricPrecision;text-rendering:geometricPrecision">
        <rect
           style="fill:#38cfc2"
           x="0"
           id="rect26"
           ry="110"
           rx="110"
           height="1867"
           width="1470"
           y="2690"
           class="fil0" />
        <path
           style="fill:#007a6e"
           inkscape:connector-curvature="0"
           id="path28"
           d="m 735,3054 c -254,0 -460,206 -460,460 H 152 l 246,290 246,-290 H 521 c 0,-118 96,-214 214,-214 118,0 214,96 214,214 0,118 -96,213 -214,213 -46,0 -88,-14 -123,-38 v 268 c 39,11 80,17 123,17 254,0 460,-206 460,-460 0,-254 -206,-460 -460,-460 z"
           class="fil1" />
        <circle
           style="fill:#fefefe"
           id="circle30"
           r="44"
           cy="4448"
           cx="1360"
           class="fil2" />
        <path
           style="fill:#33aba0"
           inkscape:connector-curvature="0"
           id="path32"
           d="m 110,2698 h 1250 c 60,0 110,50 110,110 v 1639 c 0,61 -50,110 -110,110 H 110 C 49,4557 0,4508 0,4447 V 2808 c 0,-60 49,-110 110,-110 z m 1250,1706 c -25,0 -44,20 -44,44 0,1 0,2 0,3 0,1 0,2 0,3 0,24 19,44 44,44 24,0 44,-20 44,-44 0,-1 0,-2 0,-3 0,-1 0,-2 0,-3 0,-24 -20,-44 -44,-44 z M 735,3063 c -254,0 -460,207 -460,462 H 152 l 246,291 246,-291 H 521 c 0,-118 96,-214 214,-214 118,0 214,96 214,214 0,119 -96,215 -214,215 -46,0 -88,-15 -123,-39 v 269 c 39,11 80,17 123,17 254,0 460,-207 460,-462 0,-255 -206,-462 -460,-462 z"
           class="fil3" />
      </g>
      <g
         transform="translate(-18.733121,0.36690459)"
         id="g4809">
        <path
           style="clip-rule:evenodd;fill:#333333;fill-rule:evenodd;stroke-width:0.010483;image-rendering:optimizeQuality;shape-rendering:geometricPrecision;text-rendering:geometricPrecision"
           inkscape:connector-curvature="0"
           id="path36"
           d="m 27.234834,2.002253 c 0.649946,0 1.247477,0.083864 1.792593,0.241109 0.555599,0.167728 1.027334,0.41932 1.436171,0.775742 0.398354,0.356422 0.723327,0.817674 0.953953,1.394239 0.241109,0.566082 0.356422,1.268443 0.356422,2.086117 v 5.744684 c 0,0.817674 -0.115313,1.509552 -0.356422,2.086117 -0.230626,0.566082 -0.555599,1.027334 -0.953953,1.383756 -0.408837,0.356422 -0.880572,0.618497 -1.436171,0.775742 -0.545116,0.167728 -1.142647,0.241109 -1.792593,0.241109 h -3.56422 c -0.283041,0 -0.513667,-0.0629 -0.681395,-0.199177 -0.178211,-0.136279 -0.262075,-0.293524 -0.262075,-0.482218 v -5.115704 l 2.128049,1.635348 v 2.274811 h 2.379641 c 0.765259,0 1.36279,-0.20966 1.771627,-0.639463 0.41932,-0.41932 0.62898,-1.079749 0.62898,-1.960321 V 6.49946 c 0,-0.891055 -0.20966,-1.541001 -0.62898,-1.970804 -0.408837,-0.41932 -1.006368,-0.62898 -1.771627,-0.62898 H 24.855193 V 6.08014 H 22.727144 V 2.694131 c 0,-0.188694 0.08386,-0.356422 0.262075,-0.492701 0.167728,-0.125796 0.398354,-0.199177 0.681395,-0.199177 z m 14.04722,0.691878 c 0,-0.251592 0.115313,-0.41932 0.335456,-0.52415 0.220143,-0.115313 0.461252,-0.167728 0.73381,-0.167728 0.272558,0 0.513667,0.052415 0.73381,0.167728 0.220143,0.10483 0.335456,0.272558 0.335456,0.52415 v 9.665326 c 0,0.817674 -0.115313,1.520035 -0.356422,2.086117 -0.230626,0.576565 -0.555599,1.037817 -0.974919,1.394239 -0.41932,0.356422 -0.912021,0.618497 -1.46762,0.775742 -0.566082,0.157245 -1.174096,0.241109 -1.813559,0.241109 -0.649946,0 -1.247477,-0.08386 -1.803076,-0.241109 -0.566082,-0.157245 -1.0483,-0.41932 -1.46762,-0.775742 -0.41932,-0.356422 -0.744293,-0.817674 -0.974919,-1.394239 -0.230626,-0.566082 -0.356422,-1.268443 -0.356422,-2.086117 V 2.694131 c 0,-0.251592 0.115313,-0.41932 0.335456,-0.52415 0.220143,-0.115313 0.471735,-0.167728 0.73381,-0.167728 0.272558,0 0.513667,0.052415 0.73381,0.167728 0.230626,0.10483 0.335456,0.272558 0.335456,0.52415 v 9.665326 c 0,0.891055 0.220143,1.541001 0.660429,1.970804 0.429803,0.41932 1.037817,0.62898 1.803076,0.62898 0.775742,0 1.383756,-0.20966 1.824042,-0.62898 0.429803,-0.429803 0.649946,-1.079749 0.649946,-1.970804 z m 4.738316,0 c 0,-0.188694 0.07338,-0.356422 0.220143,-0.492701 0.146762,-0.125796 0.345939,-0.199177 0.608014,-0.199177 h 3.920642 c 0.618497,0 1.205545,0.083864 1.740178,0.230626 0.534633,0.157245 1.006368,0.408837 1.394239,0.765259 0.398354,0.356422 0.712844,0.817674 0.94347,1.383756 0.230626,0.566082 0.335456,1.247477 0.335456,2.054668 v 0.157245 c 0,0.807191 -0.115313,1.499069 -0.345939,2.065151 -0.241109,0.555599 -0.555599,1.016851 -0.964436,1.373273 -0.41932,0.356422 -0.891055,0.618497 -1.446654,0.775742 -0.545116,0.167728 -1.142647,0.241109 -1.771627,0.241109 h -2.494954 v 4.979425 c 0,0.230626 -0.115313,0.408837 -0.335456,0.52415 -0.220143,0.125796 -0.471735,0.178211 -0.73381,0.178211 -0.272558,0 -0.513667,-0.05241 -0.73381,-0.178211 C 46.1252,16.437344 46.02037,16.259133 46.02037,16.028507 Z m 2.138532,1.205545 v 5.461643 h 2.494954 c 0.754776,0 1.341824,-0.220143 1.761144,-0.649946 0.41932,-0.429803 0.639463,-1.079749 0.639463,-1.970804 V 6.49946 c 0,-0.891055 -0.220143,-1.541001 -0.639463,-1.970804 -0.41932,-0.41932 -1.006368,-0.62898 -1.761144,-0.62898 z m 12.464287,11.059565 c 0.73381,0 1.331341,-0.167728 1.813559,-0.52415 0.492701,-0.345939 0.73381,-0.880572 0.73381,-1.614382 0,-0.587048 -0.167728,-1.058783 -0.482218,-1.415205 C 62.363367,11.049082 61.95453,10.745075 61.472312,10.493483 60.990094,10.252374 60.465944,10.011265 59.889379,9.791122 59.323297,9.570979 58.799147,9.298421 58.306446,8.983931 57.824228,8.669441 57.425874,8.260604 57.100901,7.767903 56.775928,7.275202 56.618683,6.614773 56.618683,5.818065 c 0,-0.744293 0.136279,-1.36279 0.41932,-1.855491 0.283041,-0.503184 0.649946,-0.901538 1.100715,-1.205545 0.450769,-0.304007 0.953953,-0.513667 1.499069,-0.62898 0.555599,-0.125796 1.100715,-0.188694 1.635348,-0.188694 0.324973,0 0.691878,0.031449 1.121681,0.073381 0.41932,0.052415 0.817674,0.125796 1.195062,0.241109 0.377388,0.115313 0.691878,0.262075 0.953953,0.450769 0.262075,0.178211 0.398354,0.408837 0.398354,0.691878 0,0.10483 -0.02097,0.220143 -0.05241,0.345939 -0.03145,0.136279 -0.08386,0.262075 -0.157245,0.377388 -0.07338,0.125796 -0.167728,0.220143 -0.283041,0.304007 -0.115313,0.083864 -0.251592,0.115313 -0.398354,0.115313 -0.136279,0 -0.272558,-0.031449 -0.41932,-0.115313 C 63.485048,4.339962 63.306837,4.256098 63.097177,4.161751 62.887517,4.067404 62.635925,3.98354 62.352884,3.899676 62.05936,3.815812 61.702938,3.77388 61.273135,3.77388 c -0.73381,0 -1.341824,0.146762 -1.813559,0.440286 -0.471735,0.283041 -0.702361,0.754776 -0.702361,1.394239 0,0.503184 0.157245,0.891055 0.482218,1.184579 0.324973,0.283041 0.723327,0.545116 1.205545,0.765259 0.482218,0.220143 1.016851,0.440286 1.582933,0.649946 0.576565,0.220143 1.100715,0.503184 1.582933,0.859606 0.482218,0.356422 0.891055,0.817674 1.205545,1.373273 0.324973,0.555599 0.482218,1.278926 0.482218,2.159498 0,0.73381 -0.10483,1.36279 -0.335456,1.897423 -0.230626,0.534633 -0.545116,0.985402 -0.964436,1.341824 -0.408837,0.356422 -0.891055,0.618497 -1.457137,0.796708 -0.566082,0.167728 -1.174096,0.262075 -1.834525,0.262075 -0.660429,0 -1.25796,-0.08386 -1.803076,-0.230626 -0.545116,-0.157245 -1.016851,-0.356422 -1.404722,-0.587048 -0.398354,-0.230626 -0.702361,-0.492701 -0.922504,-0.765259 -0.20966,-0.272558 -0.324973,-0.545116 -0.324973,-0.796708 0,-0.125796 0.03145,-0.251592 0.07338,-0.387871 0.05242,-0.125796 0.115313,-0.251592 0.199177,-0.366905 0.09435,-0.115313 0.188694,-0.20966 0.304007,-0.283041 0.115313,-0.07338 0.230626,-0.115313 0.356422,-0.115313 0.167728,0 0.345939,0.08386 0.52415,0.251592 0.167728,0.167728 0.387871,0.356422 0.62898,0.545116 0.251592,0.199177 0.555599,0.377388 0.912021,0.545116 0.356422,0.167728 0.817674,0.251592 1.373274,0.251592 z"
           class="fil5" />
        <polygon
           style="clip-rule:evenodd;fill:#292929;fill-opacity:1;fill-rule:evenodd;image-rendering:optimizeQuality;shape-rendering:geometricPrecision;text-rendering:geometricPrecision"
           id="polygon38"
           points="2168,3956 2371,4046 2371,3956 "
           class="fil6"
           transform="matrix(0.010483,0,0,0.010483,0,-28.19927)" />
        <path
           style="clip-rule:evenodd;fill:#33aba0;fill-rule:evenodd;stroke-width:0.010483;image-rendering:optimizeQuality;shape-rendering:geometricPrecision;text-rendering:geometricPrecision"
           inkscape:connector-curvature="0"
           id="path40"
           d="m 23.785927,5.430194 c -2.20143,0 -3.98354,1.78211 -3.98354,3.994023 h -1.069266 l 2.138532,2.51592 2.128049,-2.51592 h -1.058783 c 0,-1.027334 0.828157,-1.855491 1.845008,-1.855491 1.027334,0 1.855491,0.828157 1.855491,1.855491 0,1.016851 -0.828157,1.855491 -1.855491,1.855491 -0.387871,0 -0.765259,-0.125796 -1.058783,-0.345939 v 2.337709 c 0.335456,0.09435 0.691878,0.136279 1.058783,0.136279 2.211913,0 3.994023,-1.78211 3.994023,-3.98354 0,-2.211913 -1.78211,-3.994023 -3.994023,-3.994023 z"
           class="fil3" />
      </g>
    </g>
  </g>
</svg>
