<?xml version="1.0" encoding="UTF-8" standalone="no"?>
<!-- Created with Inkscape (http://www.inkscape.org/) -->

<svg
   xmlns:dc="http://purl.org/dc/elements/1.1/"
   xmlns:cc="http://creativecommons.org/ns#"
   xmlns:rdf="http://www.w3.org/1999/02/22-rdf-syntax-ns#"
   xmlns:svg="http://www.w3.org/2000/svg"
   xmlns="http://www.w3.org/2000/svg"
   xmlns:sodipodi="http://sodipodi.sourceforge.net/DTD/sodipodi-0.dtd"
   xmlns:inkscape="http://www.inkscape.org/namespaces/inkscape"
   width="76.282372mm"
   height="132.29167mm"
   viewBox="0 0 76.282371 132.29167"
   version="1.1"
   id="svg8"
   inkscape:version="0.92.3 (2405546, 2018-03-11)"
   sodipodi:docname="dups-stack.svg">
  <defs
     id="defs2">
    <style
       id="style2"
       type="text/css"><![CDATA[
    .fil2 {fill:#FEFEFE}
    .fil1 {fill:#007A6E}
    .fil5 {fill:#333333}
    .fil6 {fill:#33514E}
    .fil3 {fill:#33ABA0}
    .fil0 {fill:#38CFC2}
    .fil4 {fill:#98B6B4;fill-opacity:0.501961}
   ]]></style>
  </defs>
  <sodipodi:namedview
     id="base"
     pagecolor="#ffffff"
     bordercolor="#666666"
     borderopacity="1.0"
     inkscape:pageopacity="0.0"
     inkscape:pageshadow="2"
     inkscape:zoom="0.9899495"
     inkscape:cx="-88.473937"
     inkscape:cy="189.17423"
     inkscape:document-units="mm"
     inkscape:current-layer="layer1"
     showgrid="false"
     fit-margin-top="0"
     fit-margin-left="0"
     fit-margin-right="0"
     fit-margin-bottom="0"
     inkscape:window-width="1326"
     inkscape:window-height="643"
     inkscape:window-x="130"
     inkscape:window-y="130"
     inkscape:window-maximized="0" />
  <metadata
     id="metadata5">
    <rdf:RDF>
      <cc:Work
         rdf:about="">
        <dc:format>image/svg+xml</dc:format>
        <dc:type
           rdf:resource="http://purl.org/dc/dcmitype/StillImage" />
        <dc:title />
      </cc:Work>
    </rdf:RDF>
  </metadata>
  <g
     inkscape:label="Layer 1"
     inkscape:groupmode="layer"
     id="layer1"
     transform="translate(7.6499994e-6,93.368322)">
    <g
       id="g988"
       transform="matrix(3.3987743,0,0,3.3987743,1.8350624e-5,-93.368321)">
      <g
         transform="matrix(0.01048299,0,0,0.01048299,-139.05687,-4.423822)"
         id="g53"
         style="clip-rule:evenodd;fill-rule:evenodd;image-rendering:optimizeQuality;shape-rendering:geometricPrecision;text-rendering:geometricPrecision">
        <rect
           style="fill:#38cfc2"
           id="rect45"
           ry="160"
           rx="160"
           height="2721"
           width="2141"
           y="422"
           x="13265"
           class="fil0" />
        <path
           style="fill:#007a6e"
           inkscape:connector-curvature="0"
           id="path47"
           d="m 14336,952 c -371,0 -671,300 -671,670 h -179 l 359,423 358,-423 h -179 c 0,-172 139,-311 312,-311 172,0 311,139 311,311 0,172 -139,312 -311,312 -67,0 -129,-21 -180,-57 v 391 c 57,16 117,25 180,25 370,0 670,-301 670,-671 0,-370 -300,-670 -670,-670 z"
           class="fil1" />
        <circle
           style="fill:#fefefe"
           id="circle49"
           r="64"
           cy="2984"
           cx="15246"
           class="fil2" />
        <path
           style="fill:#33aba0"
           inkscape:connector-curvature="0"
           id="path51"
           d="m 13425,434 h 1821 c 88,0 160,72 160,161 v 2387 c 0,88 -72,161 -160,161 h -1821 c -88,0 -160,-73 -160,-161 V 595 c 0,-89 72,-161 160,-161 z m 1821,2485 c -35,0 -64,29 -64,64 0,2 0,3 0,5 0,1 0,3 0,4 0,36 29,65 64,65 36,0 64,-29 64,-65 0,-1 0,-3 0,-4 0,-2 0,-3 0,-5 0,-35 -28,-64 -64,-64 z M 14336,966 c -371,0 -671,301 -671,673 h -179 l 359,424 358,-424 h -179 c 0,-173 139,-313 312,-313 172,0 311,140 311,313 0,173 -139,313 -311,313 -67,0 -129,-21 -180,-57 v 393 c 57,16 117,24 180,24 370,0 670,-301 670,-673 0,-372 -300,-673 -670,-673 z"
           class="fil3" />
      </g>
      <g
         id="g977">
        <path
           style="clip-rule:evenodd;fill:#333333;fill-rule:evenodd;stroke-width:0.01048299;image-rendering:optimizeQuality;shape-rendering:geometricPrecision;text-rendering:geometricPrecision"
           inkscape:connector-curvature="0"
           id="path55"
           d="m 4.0988414,31.752976 c 0.3040067,0 0.5975305,0.03145 0.8596052,0.115313 0.2725578,0.07338 0.5031835,0.199177 0.6918774,0.366905 0.1991768,0.178211 0.3459386,0.398354 0.4612515,0.670911 0.1153129,0.272558 0.1677279,0.608014 0.1677279,1.006367 v 2.76751 c 0,0.398353 -0.052415,0.733809 -0.1677279,1.006367 -0.1153129,0.272558 -0.2620747,0.503183 -0.4612515,0.670911 -0.1886939,0.167728 -0.4193196,0.293524 -0.6918774,0.377388 -0.2620747,0.07338 -0.5555985,0.115313 -0.8596052,0.115313 H 2.3796311 c -0.1362789,0 -0.2515918,-0.03145 -0.3354557,-0.09435 -0.083864,-0.07338 -0.1257959,-0.146762 -0.1257959,-0.241109 v -2.463503 l 1.027333,0.786225 v 1.100714 h 1.1531289 c 0.3669047,0 0.6499454,-0.10483 0.8491222,-0.304007 0.2096598,-0.20966 0.3040067,-0.52415 0.3040067,-0.953952 v -2.76751 c 0,-0.429802 -0.094347,-0.744292 -0.3040067,-0.943469 C 4.7487868,32.759344 4.4657461,32.664997 4.0988414,32.664997 H 2.9457125 v 1.048299 h -1.027333 v -1.635347 c 0,-0.09435 0.041932,-0.167728 0.1257959,-0.230626 0.083864,-0.0629 0.1991768,-0.09435 0.3354557,-0.09435 z m 6.7720116,0.324973 c 0,-0.115313 0.05241,-0.199177 0.157245,-0.251592 0.10483,-0.05241 0.220143,-0.07338 0.356421,-0.07338 0.125796,0 0.241109,0.02097 0.356422,0.07338 0.10483,0.05241 0.157245,0.136279 0.157245,0.251592 v 4.664931 c 0,0.38787 -0.0629,0.723326 -0.167728,1.006367 -0.115313,0.272558 -0.272558,0.4927 -0.471734,0.670911 -0.199177,0.167728 -0.440286,0.293524 -0.712844,0.366905 -0.272557,0.08386 -0.5660812,0.115313 -0.8700879,0.115313 -0.3144897,0 -0.6080134,-0.03145 -0.8700882,-0.115313 C 8.5331462,38.713682 8.3025204,38.587886 8.1033436,38.420158 7.8936838,38.241947 7.736439,38.021805 7.6316091,37.749247 7.5162962,37.466206 7.4533982,37.13075 7.4533982,36.74288 v -4.664931 c 0,-0.115313 0.062898,-0.199177 0.1677279,-0.251592 0.1048299,-0.05241 0.2201428,-0.07338 0.3564216,-0.07338 0.1257959,0 0.2411088,0.02097 0.3459387,0.07338 0.1153129,0.05241 0.1677278,0.136279 0.1677278,0.251592 v 4.664931 c 0,0.429802 0.1048299,0.744292 0.3144897,0.943469 0.2096598,0.20966 0.4927006,0.304007 0.8700882,0.304007 0.3773879,0 0.6604279,-0.09435 0.8805709,-0.304007 0.20966,-0.199177 0.31449,-0.513667 0.31449,-0.943469 z m 2.274809,0 c 0,-0.09435 0.04193,-0.167728 0.115313,-0.230626 0.0629,-0.0629 0.167728,-0.09435 0.28304,-0.09435 h 1.897422 c 0.304006,0 0.576564,0.03145 0.838639,0.10483 0.262075,0.07338 0.482217,0.199177 0.670911,0.366905 0.188694,0.178211 0.345939,0.398354 0.450769,0.670911 0.115313,0.272558 0.167728,0.597531 0.167728,0.985401 v 0.08386 c 0,0.387871 -0.05241,0.712844 -0.167728,0.985401 -0.115313,0.272558 -0.272558,0.492701 -0.471735,0.670912 -0.199177,0.167728 -0.429802,0.293524 -0.691877,0.366904 -0.262075,0.08386 -0.545116,0.125796 -0.849122,0.125796 h -1.205544 v 2.390122 c 0,0.115313 -0.05241,0.199177 -0.167728,0.262075 -0.10483,0.05241 -0.220143,0.08386 -0.345939,0.08386 -0.136279,0 -0.251591,-0.03145 -0.356421,-0.08386 -0.10483,-0.0629 -0.167728,-0.146762 -0.167728,-0.262075 z m 1.037816,0.587048 v 2.63123 h 1.205544 c 0.356421,0 0.639462,-0.10483 0.849122,-0.31449 0.199177,-0.209659 0.304007,-0.524149 0.304007,-0.953952 v -0.115313 c 0,-0.429802 -0.10483,-0.744292 -0.304007,-0.943469 -0.20966,-0.209659 -0.492701,-0.304006 -0.849122,-0.304006 z m 6.006753,5.325359 c 0.356422,0 0.639462,-0.08386 0.880571,-0.251592 0.230626,-0.167728 0.345939,-0.429803 0.345939,-0.775741 0,-0.283041 -0.07338,-0.513667 -0.230626,-0.681395 C 21.02887,36.103417 20.829693,35.967138 20.599068,35.841343 20.368442,35.72603 20.11685,35.610717 19.833809,35.505887 19.561252,35.390574 19.30966,35.264778 19.079034,35.118016 18.837925,34.960771 18.649232,34.761595 18.491987,34.530969 18.334742,34.28986 18.261361,33.97537 18.261361,33.5875 c 0,-0.356422 0.0629,-0.660429 0.199177,-0.901537 0.136279,-0.230626 0.314489,-0.429803 0.534632,-0.576565 0.20966,-0.146762 0.450769,-0.241109 0.723327,-0.304007 0.262074,-0.05241 0.524149,-0.08386 0.786224,-0.08386 0.157245,0 0.335455,0.01048 0.534632,0.03145 0.20966,0.02097 0.398354,0.0629 0.576565,0.115313 0.188694,0.05241 0.335455,0.125796 0.461251,0.20966 0.125796,0.09435 0.199177,0.199177 0.199177,0.335456 0,0.05242 -0.01048,0.115313 -0.03145,0.178211 -0.01048,0.0629 -0.04193,0.115313 -0.07338,0.178211 -0.04193,0.05241 -0.08386,0.104829 -0.136279,0.146761 -0.05241,0.03145 -0.115313,0.05242 -0.188693,0.05242 -0.0629,0 -0.136279,-0.02097 -0.20966,-0.05242 -0.07338,-0.04193 -0.157245,-0.08386 -0.251592,-0.125796 -0.10483,-0.05241 -0.220143,-0.09435 -0.366905,-0.125795 -0.136279,-0.04193 -0.304006,-0.0629 -0.513666,-0.0629 -0.356422,0 -0.649946,0.07338 -0.880571,0.209659 -0.220143,0.136279 -0.335456,0.366905 -0.335456,0.670912 0,0.241109 0.07338,0.429802 0.230626,0.576564 0.157245,0.136279 0.356421,0.262075 0.587047,0.366905 0.230626,0.10483 0.482218,0.20966 0.765258,0.31449 0.272558,0.10483 0.52415,0.241108 0.754776,0.408836 0.241108,0.178211 0.429802,0.398354 0.587047,0.660429 0.157245,0.272557 0.230626,0.618496 0.230626,1.048299 0,0.345938 -0.05241,0.649945 -0.167728,0.91202 -0.10483,0.262074 -0.262075,0.471734 -0.461251,0.649945 -0.188694,0.167728 -0.429803,0.293524 -0.702361,0.377388 -0.272558,0.08386 -0.566081,0.125796 -0.880571,0.125796 -0.31449,0 -0.608013,-0.03145 -0.870088,-0.10483 C 19.1,38.745135 18.869374,38.650787 18.680681,38.535474 18.491987,38.420161 18.345225,38.294365 18.240395,38.168569 18.135565,38.03229 18.08315,37.906495 18.08315,37.780699 c 0,-0.0629 0.01048,-0.115313 0.03145,-0.188694 0.03145,-0.0629 0.0629,-0.125796 0.10483,-0.178211 0.04193,-0.05242 0.08386,-0.09435 0.146762,-0.136279 0.05241,-0.03145 0.10483,-0.05242 0.167728,-0.05242 0.08386,0 0.167728,0.04193 0.251591,0.125796 0.08386,0.07338 0.188694,0.167728 0.304007,0.262075 0.115313,0.09435 0.262075,0.178211 0.440286,0.262075 0.167728,0.07338 0.38787,0.115313 0.660428,0.115313 z"
           class="fil5" />
        <polygon
           style="clip-rule:evenodd;fill:#292929;fill-opacity:1;fill-rule:evenodd;image-rendering:optimizeQuality;shape-rendering:geometricPrecision;text-rendering:geometricPrecision"
           id="polygon57"
           points="13448,3968 13546,4012 13546,3968 "
           class="fil6"
           transform="matrix(0.01048299,0,0,0.01048299,-139.05687,-4.423822)" />
        <path
           style="clip-rule:evenodd;fill:#33aba0;fill-rule:evenodd;stroke-width:0.01048299;image-rendering:optimizeQuality;shape-rendering:geometricPrecision;text-rendering:geometricPrecision"
           inkscape:connector-curvature="0"
           id="path59"
           d="m 2.432046,33.398806 c -1.058782,0 -1.91838714,0.859605 -1.91838714,1.92887 H -7.65e-6 L 1.0273254,36.53322 2.0546584,35.327676 H 1.5409919 c 0,-0.503183 0.3983536,-0.901537 0.8910541,-0.901537 0.4927006,0 0.9015372,0.398354 0.9015372,0.901537 0,0.492701 -0.4088366,0.891054 -0.9015372,0.891054 -0.1886938,0 -0.3669046,-0.0629 -0.5136665,-0.167728 v 1.12168 c 0.1677279,0.05241 0.3354557,0.07338 0.5136665,0.07338 1.069265,0 1.9288702,-0.859605 1.9288702,-1.918387 0,-1.069265 -0.8596052,-1.92887 -1.9288702,-1.92887 z"
           class="fil3" />
      </g>
    </g>
  </g>
</svg>
